# xmcd CD database file
#
# Track frame offsets:
#	150
#	12105
#	30375
#	51710
#	63864
#	94699
#	116754
#	136658
#	161150
#	175247
#
# Disc length: 2586 seconds
#
# Revision: 0
# Processed by: cddbd v1.5PL3 Copyright (c) Steve Scherf et al.
# Submitted via: CDex 1.51
#
DISCID=7e0a180a
DTITLE=Tom Lellis - And In The Corner...
DYEAR=1981
DGENRE=Jazz
TTITLE0=Lucky Southern
TTITLE1=E.S.P.
TTITLE2=Begin the Beguine
TTITLE3=Nightshades
TTITLE4=Man from Tanganyika
TTITLE5=One on One
TTITLE6=Times Lie
TTITLE7=LLuvia
TTITLE8=Atrantis,Pompeii,and Athens
TTITLE9=Lucky Southern
EXTD=YEAR: 1981
EXTT0=
EXTT1=
EXTT2=
EXTT3=
EXTT4=
EXTT5=
EXTT6=
EXTT7=
EXTT8=
EXTT9=
PLAYORDER=
